<svg width="24" height="24" viewBox="0 0 24 24" fill="none" xmlns="http://www.w3.org/2000/svg">
<path d="M12 2.25C17.3848 2.25 21.75 6.61522 21.75 12C21.75 17.3848 17.3848 21.75 12 21.75C6.61522 21.75 2.25 17.3848 2.25 12C2.25 6.61522 6.61522 2.25 12 2.25ZM12 10C11.6936 10 11.4134 10.1732 11.2764 10.4473L11.0303 10.9395C10.7118 11.5764 10.03 11.9476 9.32227 11.8691L6.53223 11.5596C6.1805 11.5205 5.83802 11.419 5.52148 11.2607L3.89746 10.4482C3.80177 10.9509 3.75 11.4695 3.75 12C3.75 16.5563 7.44365 20.25 12 20.25C16.5563 20.25 20.25 16.5563 20.25 12C20.25 11.4694 20.1973 10.951 20.1016 10.4482L18.4785 11.2607C18.162 11.419 17.8195 11.5205 17.4678 11.5596L14.6777 11.8691C13.97 11.9476 13.2882 11.5764 12.9697 10.9395L12.7236 10.4473C12.5866 10.1732 12.3064 10 12 10ZM15.3701 14.7646C15.5948 14.4166 16.0593 14.3163 16.4072 14.541C16.7551 14.7658 16.8545 15.2303 16.6299 15.5781C15.5999 17.1727 13.7618 17.9209 12 17.9209C10.2382 17.9209 8.40012 17.1727 7.37012 15.5781C7.14542 15.2303 7.24497 14.7658 7.59277 14.541C7.94071 14.3163 8.40514 14.4166 8.62988 14.7646C9.32233 15.8365 10.6232 16.4209 12 16.4209C13.3768 16.4209 14.6777 15.8365 15.3701 14.7646ZM12 3.75C8.69511 3.75 5.84514 5.69376 4.52832 8.5H19.4717C18.1549 5.69376 15.3049 3.75 12 3.75Z" fill="white"/>
</svg>
